<svg xmlns="http://www.w3.org/2000/svg" xmlns:xlink="http://www.w3.org/1999/xlink" width="249" zoomAndPan="magnify" viewBox="0 0 187.5 143.999998" height="192" preserveAspectRatio="xMidYMid meet" version="1.0"><defs><clipPath id="84d04a88dd"><path d="M 67 34 L 114 34 L 114 103.429688 L 67 103.429688 Z M 67 34 " clip-rule="nonzero"/></clipPath></defs><g clip-path="url(#84d04a88dd)"><path fill="#ed1c24" d="M 90.347656 67.375 C 84.167969 67.375 79.160156 62.351562 79.160156 56.160156 C 79.160156 49.96875 84.167969 44.945312 90.347656 44.945312 C 96.527344 44.945312 101.539062 49.96875 101.539062 56.160156 C 101.539062 62.351562 96.527344 67.375 90.347656 67.375 Z M 110.367188 45.679688 C 103.902344 34.601562 89.699219 30.875 78.648438 37.355469 C 67.59375 43.832031 63.875 58.0625 70.339844 69.140625 L 90.355469 103.425781 L 110.367188 69.140625 C 114.429688 62.136719 114.738281 53.171875 110.367188 45.679688 " fill-opacity="1" fill-rule="nonzero"/></g></svg>